<svg xmlns="http://www.w3.org/2000/svg" width="32" height="24" viewBox="0 0 32 24">
    <g fill="#D1DAE1" fill-rule="evenodd">
        <path d="M30.301 16.192c-.232 0-.463.074-.695.147l-4.17-3.603 3.32-.148c.232.589.927 1.03 1.622 1.03.927 0 1.622-.809 1.622-1.692 0-.882-.85-1.544-1.776-1.544-.772 0-1.313.515-1.544 1.103l-3.244.147 3.861-3.971c.232.073.54.147.772.147.927 0 1.622-.81 1.622-1.692 0-.883-.85-1.545-1.776-1.545-.927 0-1.622.81-1.622 1.692 0 .22.078.441.155.662l-4.633 4.78a1.578 1.578 0 0 0-1.622-1.029c-.927 0-1.622.81-1.622 1.692 0 .882.85 1.544 1.776 1.544.695 0 1.313-.515 1.545-1.103l4.865 4.34c-.077.22-.155.514-.155.735 0 .883.85 1.545 1.776 1.545.927 0 1.622-.81 1.622-1.692 0-.956-.772-1.618-1.699-1.545z"/>
        <path d="M17.278 7.58c-.08.314.08.705.404.783l4.117 1.408c.323.078.646-.078.727-.47l1.453-5.554a.778.778 0 0 0-.403-.86l-1.615-.548S15.744-.477 9.527.071c-3.23.313-5.57 1.72-7.105 3.755C.807 5.938.081 8.91 0 11.726c0 2.739.404 4.695 1.373 6.65 1.372 2.817 3.956 4.929 7.912 5.476 6.217.783 12.514-1.799 12.514-1.799l1.615-.47c.323-.078.485-.469.404-.782l-1.373-5.476c-.08-.39-.403-.547-.726-.469L17.6 16.108c-.323.078-.484.469-.404.782l.162.548c.08.234-.08.547-.323.625-2.019.86-6.056 1.565-9.124-.078-3.068-1.643-2.825-5.554-2.825-6.023 0-.47.161-4.381 2.906-5.79 3.149-1.564 7.105-.704 9.124.235.242.078.403.391.323.626l-.162.548zm-.323 12.36c.323.08.565.392.646.705.162.704-.484 1.252-1.13 1.095-.323-.078-.565-.391-.646-.704-.08-.626.484-1.252 1.13-1.095zm-4.198.236c.323.078.565.39.646.704.161.704-.485 1.251-1.13 1.095-.324-.078-.566-.391-.647-.704-.08-.704.485-1.252 1.13-1.095zM8.8 19.472c.322.078.565.39.645.704.162.704-.484 1.251-1.13 1.095-.323-.078-.565-.391-.646-.704-.08-.626.485-1.252 1.13-1.095zM2.18 9.38c.969-3.755 3.391-5.633 3.472-5.71.242-.157.565-.157.726.077.162.235.081.548-.08.783-.081.078-2.18 1.72-3.15 5.085-.887 3.129.162 6.65 2.342 9.152l.242.235c.162.157.323.313.404.548.08.234.08.47-.161.547a.71.71 0 0 1-.566 0c-.161-.078-.322-.234-.403-.313-2.503-2.581-3.795-6.336-3.068-9.778.161-.235.161-.391.242-.626zm6.46-5.007c-.324-.078-.566-.39-.647-.704-.161-.704.485-1.251 1.13-1.095.323.078.566.391.646.704.081.704-.484 1.252-1.13 1.095zm5.086-1.251a.94.94 0 0 1-.727.704c-.646.156-1.211-.47-1.05-1.174a.94.94 0 0 1 .727-.704c.646-.156 1.211.47 1.05 1.174zm3.068 1.017c-.323-.079-.566-.392-.646-.705-.162-.704.484-1.251 1.13-1.095.323.079.565.391.646.704.08.626-.484 1.252-1.13 1.096z"/>
    </g>
</svg>
