<svg xmlns="http://www.w3.org/2000/svg" width="36" height="36" viewBox="0 0 36 36">
    <g fill="none" fill-rule="evenodd">
        <path d="M0 0h36v36H0z"/>
        <rect width="32.5" height="20.5" x="1.75" y="7.75" fill="#FFF" stroke="#FFF" stroke-width=".5" rx="2"/>
        <path fill="#1A1F71" fill-rule="nonzero" d="M14.572 13.68l-3.737 8.707h-2.43L6.57 15.43c-.114-.426-.206-.583-.55-.763a10.271 10.271 0 0 0-2.27-.74l.046-.247h3.92c.534-.006.987.38 1.055.897l.963 5.05 2.385-5.925h2.453v-.022zm9.538 5.857c0-2.289-3.255-2.424-3.232-3.456 0-.314.32-.65.985-.74a4.55 4.55 0 0 1 2.27.38l.413-1.84a6.156 6.156 0 0 0-2.155-.381c-2.27 0-3.875 1.19-3.898 2.873-.023 1.257 1.146 1.952 2.018 2.379.87.426 1.192.695 1.192 1.077 0 .583-.71.853-1.376.853a4.726 4.726 0 0 1-2.361-.561l-.413 1.907c.527.247 1.536.45 2.568.472 2.384.022 3.966-1.145 3.99-2.963zm6.008 2.85h2.132l-1.857-8.707H28.42a1.058 1.058 0 0 0-.986.628l-3.462 8.08h2.407l.482-1.302h2.958l.298 1.301zM27.55 19.29l1.215-3.276.688 3.276H27.55zm-9.699-5.61l-1.903 8.707h-2.293l1.903-8.707h2.293z"/>
        <path fill="#F7B600" fill-rule="nonzero" d="M3.75 24h28.5v3H3.75z"/>
        <path fill="#1A1F71" fill-rule="nonzero" d="M3.75 9h28.5v3H3.75z"/>
    </g>
</svg>
