<svg xmlns="http://www.w3.org/2000/svg" width="36" height="36" viewBox="0 0 36 36">
    <g fill="none" fill-rule="evenodd">
        <path d="M0 0h36v36H0z"/>
        <g fill-rule="nonzero">
            <path fill="#FF5F00" d="M13.186 9.959h9.856V25.45h-9.856z"/>
            <path fill="#EB001B" d="M14.18 17.705c.001-3.02 1.435-5.873 3.892-7.746C14.55 7.29 9.637 7.142 5.949 9.592 2.261 12.042.657 16.519 1.991 20.64c1.334 4.12 5.296 6.924 9.775 6.918 2.288.002 4.51-.74 6.306-2.107-2.457-1.874-3.89-4.727-3.892-7.746z"/>
            <path fill="#F79E1B" d="M34.63 17.705c-.004 3.767-2.238 7.203-5.753 8.85-3.516 1.648-7.7 1.219-10.777-1.104 2.458-1.873 3.891-4.727 3.891-7.746 0-3.02-1.433-5.873-3.891-7.746 3.078-2.324 7.26-2.752 10.777-1.105 3.515 1.648 5.749 5.083 5.753 8.85z"/>
            <path fill="#FFF" d="M6.796 19.659v-1.556a.861.861 0 0 0-.276-.713 1.038 1.038 0 0 0-.77-.272 1.15 1.15 0 0 0-.963.44 1.016 1.016 0 0 0-.905-.44.996.996 0 0 0-.82.363v-.311h-.538v2.489h.537v-1.426a.551.551 0 0 1 .172-.471.667.667 0 0 1 .507-.177c.396 0 .623.233.623.648v1.426H4.9v-1.426a.551.551 0 0 1 .172-.471.667.667 0 0 1 .507-.177c.396 0 .623.233.623.648v1.426h.594zm8.827-2.489h-.99v-.752h-.538v.752h-.566v.44h.566v1.167c0 .57.227.908.906.908.257-.005.51-.067.735-.182l-.17-.44a.995.995 0 0 1-.509.13.416.416 0 0 1-.321-.114.344.344 0 0 1-.103-.302v-1.166h.99v-.441zm5.036-.052a.87.87 0 0 0-.736.363v-.311h-.537v2.489h.537v-1.4c0-.415.227-.674.595-.674.124.004.247.022.367.052l.17-.467a1.046 1.046 0 0 0-.396-.052zm-7.61.26a2.08 2.08 0 0 0-1.104-.26c-.679 0-1.103.285-1.103.778 0 .415.31.648.905.726l.283.026c.311.052.51.155.51.285 0 .181-.227.31-.652.31a1.59 1.59 0 0 1-.905-.258l-.283.389c.344.208.748.316 1.16.31.792 0 1.217-.336 1.217-.803s-.34-.648-.934-.726l-.283-.026c-.254-.026-.48-.104-.48-.26 0-.155.226-.31.537-.31.296.012.585.082.849.207l.282-.389zm8.204 1.036c-.023.35.118.693.389.94.27.248.644.378 1.026.357.348.016.69-.085.962-.286l-.283-.388c-.2.149-.45.231-.708.233-.472-.034-.836-.396-.836-.83 0-.434.364-.795.836-.83.258.002.508.085.708.234l.283-.389a1.502 1.502 0 0 0-.962-.285 1.352 1.352 0 0 0-1.025.32 1.12 1.12 0 0 0-.39.924zm-3.791-1.296c-.792 0-1.33.519-1.33 1.296-.024.346.113.685.377.932.265.248.632.38 1.01.365.399.007.789-.112 1.103-.337l-.283-.363a1.431 1.431 0 0 1-.792.259c-.417.014-.775-.268-.82-.648h2.008v-.208c0-.777-.51-1.296-1.273-1.296zm-.028.44a.712.712 0 0 1 .5.173c.133.117.208.28.207.45H16.67c.054-.35.377-.614.764-.622zm-7.328.856V17.17H9.57v.311a1.083 1.083 0 0 0-.878-.363c-.78 0-1.414.58-1.414 1.296 0 .716.633 1.297 1.414 1.297.34.017.667-.118.878-.363v.31h.537v-1.244zm-2.178 0c.03-.421.423-.743.884-.725.46.019.82.37.811.793-.01.423-.386.761-.847.762a.87.87 0 0 1-.627-.24.724.724 0 0 1-.221-.59zm20.907-1.296a.87.87 0 0 0-.735.363v-.311h-.538v2.489h.538v-1.4c0-.415.226-.674.594-.674.124.004.248.022.368.052l.17-.467a1.046 1.046 0 0 0-.397-.052zm4.357 2.178c.04-.004.08.005.113.026.029 0 .057.026.085.052.029.025.057.051.057.077 0 .026.028.052.028.104a.146.146 0 0 1-.028.104c-.028.026-.028.052-.057.077-.028.026-.056.052-.085.052-.028 0-.056.026-.113.026a.182.182 0 0 1-.113-.026c-.028-.026-.056-.026-.085-.052-.028-.025-.056-.051-.056-.077 0-.026-.029-.052-.029-.104a.146.146 0 0 1 .029-.104c.028-.026.028-.052.056-.077.029-.026.057-.052.085-.052a.182.182 0 0 1 .113-.026zm0 .44a.11.11 0 0 0 .085-.025c.03-.003.054-.025.057-.052l.056-.052c0-.026.029-.052.029-.078a.091.091 0 0 0-.029-.078c-.001-.028-.026-.05-.056-.052l-.057-.051c-.028 0-.056-.026-.085-.026a.11.11 0 0 0-.085.026c-.03.002-.054.024-.056.051l-.057.052c0 .026-.028.052-.028.078a.091.091 0 0 0 .028.078c.002.028.026.05.057.052l.056.052a.11.11 0 0 0 .085.025zm.029-.31a.11.11 0 0 1 .084.025c.029.026.029.026.029.052s0 .026-.029.052a.103.103 0 0 1-.056.026l.085.078h-.057l-.085-.078h-.028v.078h-.057v-.234h.114zm-.085.051v.052h.085v-.052h-.085zm-6.394-1.063V17.17h-.538v.311a1.083 1.083 0 0 0-.877-.363c-.781 0-1.414.58-1.414 1.296 0 .716.633 1.297 1.414 1.297.34.017.667-.118.877-.363v.31h.538v-1.244zm-2.179 0c.031-.421.424-.743.884-.725.461.019.821.37.812.793-.01.423-.386.761-.847.762a.87.87 0 0 1-.627-.24.724.724 0 0 1-.222-.59zm7.64 0v-2.23h-.538v1.297a1.083 1.083 0 0 0-.877-.363c-.782 0-1.415.58-1.415 1.296 0 .716.633 1.297 1.415 1.297.339.017.666-.118.877-.363v.31h.537v-1.244zm-2.18 0c.031-.421.424-.743.885-.725.46.019.82.37.811.793-.01.423-.385.761-.847.762a.87.87 0 0 1-.627-.24.724.724 0 0 1-.221-.59z"/>
        </g>
    </g>
</svg>
