<svg xmlns="http://www.w3.org/2000/svg" width="36" height="36" viewBox="0 0 36 36">
    <g fill="none" fill-rule="evenodd">
        <path d="M0 0h36v36H0z"/>
        <path fill="#424242" fill-rule="nonzero" d="M7.216 13.798c-.399.471-1.036.843-1.674.79-.08-.637.233-1.314.598-1.732.398-.484 1.096-.83 1.66-.856.066.664-.193 1.314-.584 1.798zm.577.916c-.923-.053-1.713.524-2.151.524-.445 0-1.116-.498-1.846-.484-.95.013-1.833.55-2.318 1.406-.996 1.712-.259 4.247.704 5.64.472.69 1.036 1.446 1.78 1.42.704-.027.983-.458 1.833-.458.856 0 1.102.458 1.846.445.77-.014 1.255-.69 1.726-1.38.538-.783.757-1.546.77-1.586-.013-.014-1.487-.577-1.5-2.276-.014-1.42 1.162-2.097 1.215-2.137-.664-.982-1.7-1.088-2.059-1.114zm5.333-1.924v10.344h1.607v-3.537h2.224c2.032 0 3.46-1.393 3.46-3.41 0-2.017-1.401-3.397-3.406-3.397h-3.885zm1.607 1.353h1.853c1.394 0 2.191.743 2.191 2.05s-.797 2.057-2.198 2.057h-1.846v-4.107zm8.62 9.07c1.009 0 1.945-.51 2.37-1.32h.033v1.24h1.488v-5.148c0-1.493-1.196-2.455-3.035-2.455-1.707 0-2.968.975-3.015 2.315h1.448c.12-.636.71-1.054 1.52-1.054.983 0 1.534.457 1.534 1.3v.57l-2.005.12c-1.866.113-2.875.876-2.875 2.203 0 1.34 1.042 2.23 2.536 2.23zm.431-1.227c-.857 0-1.401-.412-1.401-1.042 0-.65.524-1.028 1.527-1.088l1.786-.113v.584c0 .969-.823 1.659-1.912 1.659zm5.445 3.96c1.567 0 2.305-.596 2.949-2.408L35 15.63h-1.634l-1.892 6.111h-.033l-1.893-6.11h-1.68l2.723 7.53-.146.458c-.246.776-.645 1.075-1.355 1.075-.126 0-.372-.013-.472-.027v1.241c.093.027.492.04.611.04z"/>
    </g>
</svg>
