<svg xmlns="http://www.w3.org/2000/svg" width="100" height="97" viewBox="0 0 100 97">
    <g fill="none" fill-rule="evenodd">
        <path d="M17.407 81.25C9.167 74.625 3.792 68.813 1.282 63.817 8.777 41.43 22.36 26.316 42.027 18.47l.28-.603 2.569-.638c-.003-.21-.004-.423-.004-.638C44.872 9.785 46.582 4.254 50 0c4.274 5.105 6.838 9.36 7.692 12.763l.32 1.276h2.244L70.513 1.276V14.04h1.282c2.564 0 25.64 44.672 26.923 47.224 1.282 2.553 1.282 7.658-2.564 10.21-3.846 2.553-7.692 3.83-10.257 3.83-2.564 0-6.41-2.553-8.974-6.382-1.71-2.553-2.564-4.68-2.564-6.382h-6.41c-2.144 0-3.491-.793-5.152-2.379l.024-.173c-1.71 11.912 0 23.824 5.128 35.737-20.513.85-37.18-3.83-50-14.04z" opacity=".2"/>
        <path stroke="#27C5C8" d="M62.82 59.987c-1.709 11.912 0 23.824 5.129 35.737-20.513.85-37.18-3.83-50-14.04.854-22.123 9.829-40.842 26.923-56.158"/>
        <path stroke="#27C5C8" d="M53.846 40.842c-.855 5.956.428 10.636 3.846 14.04 5.129 5.105 6.41 7.657 10.257 7.657h6.41c0 1.702.855 3.83 2.564 6.382 2.564 3.829 6.41 6.382 8.974 6.382 2.565 0 6.41-1.277 10.257-3.83 3.846-2.552 3.846-7.657 2.564-10.21-1.282-2.552-24.359-47.224-26.923-47.224H57.692"/>
        <path stroke="#27C5C8" d="M48.718 30.632c-2.564-2.553-3.846-7.233-3.846-14.04C44.872 9.785 46.582 4.254 50 0c4.274 5.105 6.838 9.36 7.692 12.763a41.781 41.781 0 0 1 1.282 10.21"/>
        <path stroke="#27C5C8" stroke-linecap="round" stroke-linejoin="round" d="M70.513 14.04V1.275L60.256 14.04"/>
        <path stroke="#27C5C8" d="M43.59 17.868C23.077 25.526 8.974 40.842 1.282 63.816c2.564 5.105 8.12 11.061 16.667 17.868M19.23 67.645c-5.982-4.255-10.683-9.36-14.102-15.316M23.077 54.882c-4.274-2.553-8.12-6.807-11.539-12.764M19.23 33.184c2.565 6.807 5.129 11.062 7.693 12.763M26.923 26.803c.855 4.254 2.992 8.083 6.41 11.486M34.615 21.697l3.847 8.935"/>
    </g>
</svg>
