<svg xmlns="http://www.w3.org/2000/svg" width="40" height="40" viewBox="0 0 40 40">
    <g fill="none" fill-rule="evenodd">
        <path d="M6.79 33.362C3.592 30.689 1.5 28.34.513 26.316 3.51 17.085 8.943 10.852 16.81 7.617l.113-.249 1.027-.263a22.374 22.374 0 0 1-.001-.263c0-2.807.683-5.088 2.051-6.842 1.71 2.105 2.735 3.86 3.077 5.263l.128.526h.898L28.205.526V5.79h.513c1.026 0 10.256 18.422 10.77 19.474.512 1.053.512 3.158-1.026 4.21-1.539 1.053-3.077 1.58-4.103 1.58-1.026 0-2.564-1.053-3.59-2.632-.684-1.053-1.025-1.93-1.025-2.632h-2.565c-.857 0-1.395-.326-2.06-.98l.01-.072c-.685 4.912 0 9.824 2.05 14.737-8.205.35-14.871-1.58-20-5.79z" opacity=".2"/>
        <path stroke="#FFF" d="M25.128 24.737c-.684 4.912 0 9.824 2.051 14.737-8.205.35-14.871-1.58-20-5.79.342-9.123 3.932-16.842 10.77-23.158"/>
        <path stroke="#FFF" d="M21.538 16.842c-.341 2.456.171 4.386 1.539 5.79 2.051 2.105 2.564 3.157 4.102 3.157h2.565c0 .702.341 1.58 1.025 2.632 1.026 1.579 2.564 2.632 3.59 2.632 1.026 0 2.564-.527 4.103-1.58C40 28.422 40 26.317 39.487 25.264c-.513-1.052-9.743-19.474-10.77-19.474h-5.64"/>
        <path stroke="#FFF" d="M19.487 12.632c-1.025-1.053-1.538-2.983-1.538-5.79S18.632 1.754 20 0c1.71 2.105 2.735 3.86 3.077 5.263.342 1.404.513 2.807.513 4.21"/>
        <path stroke="#FFF" stroke-linecap="round" stroke-linejoin="round" d="M28.205 5.79V.525L24.103 5.79"/>
        <path stroke="#FFF" d="M17.436 7.368C9.23 10.526 3.59 16.842.513 26.316c1.025 2.105 3.248 4.561 6.666 7.368M7.692 27.895c-2.393-1.755-4.273-3.86-5.64-6.316M9.23 22.632c-1.709-1.053-3.247-2.807-4.615-5.264M7.692 13.684c1.026 2.807 2.052 4.562 3.077 5.263M10.77 11.053c.341 1.754 1.196 3.333 2.563 4.736M13.846 8.947l1.539 3.685"/>
    </g>
</svg>
