<svg xmlns="http://www.w3.org/2000/svg" width="100" height="100" viewBox="0 0 100 100">
    <g fill="none" fill-rule="evenodd">
        <path d="M72.813 74.312c5.674-4.718 9.38-8.86 11.116-12.423-5.22-16.072-14.68-26.924-28.377-32.556l-.195-.433-1.788-.459c.002-.15.002-.303.002-.457 0-4.887-1.19-8.858-3.571-11.913-2.976 3.666-4.762 6.72-5.357 9.164l-.222.915-1.564.001-7.143-9.163v9.163h-.893c-1.785 0-17.857 32.073-18.75 33.905-.892 1.833-.892 5.499 1.786 7.331 2.679 1.833 5.357 2.75 7.143 2.75 1.786 0 4.464-1.833 6.25-4.582 1.19-1.833 1.786-3.36 1.786-4.582H37.5c1.493 0 2.43-.57 3.587-1.708l-.016-.125c1.19 8.553 0 17.105-3.571 25.658 14.286.61 25.893-2.75 34.821-10.08z" opacity=".2"/>
        <path stroke="#FFF" stroke-width="2" d="M41.071 59.14c1.19 8.553 0 17.105-3.571 25.658 14.286.61 25.893-2.75 34.821-10.08-.595-15.883-6.845-29.323-18.75-40.32"/>
        <path stroke="#FFF" stroke-width="2" d="M47.321 45.395c.596 4.276-.297 7.636-2.678 10.08-3.572 3.665-4.464 5.498-7.143 5.498h-4.464c0 1.222-.596 2.749-1.786 4.582-1.786 2.749-4.464 4.581-6.25 4.581-1.786 0-4.464-.916-7.143-2.749-2.678-1.832-2.678-5.498-1.786-7.33.893-1.833 16.965-33.906 18.75-33.906h9.822"/>
        <path stroke="#FFF" stroke-width="2" d="M50.893 38.064c1.786-1.833 2.678-5.193 2.678-10.08 0-4.887-1.19-8.858-3.571-11.913-2.976 3.666-4.762 6.72-5.357 9.164a30.876 30.876 0 0 0-.893 7.33"/>
        <path stroke="#FFF" stroke-linecap="round" stroke-linejoin="round" stroke-width="2" d="M35.714 26.151v-9.163l7.143 9.163"/>
        <path stroke="#FFF" stroke-width="2" d="M54.464 28.9C68.75 34.398 78.571 45.395 83.93 61.89c-1.786 3.665-5.655 7.94-11.608 12.828M71.429 64.638c4.166-3.054 7.44-6.72 9.821-10.996M68.75 55.475c2.976-1.833 5.655-4.888 8.036-9.164M71.429 39.897c-1.786 4.887-3.572 7.941-5.358 9.163M66.071 35.315c-.595 3.054-2.083 5.803-4.464 8.247M60.715 31.65l-2.68 6.413"/>
        <circle cx="49.107" cy="50.893" r="47.321" stroke="#FFF" stroke-width="2"/>
    </g>
</svg>
