<svg xmlns="http://www.w3.org/2000/svg" width="25" height="24" viewBox="0 0 25 24">
    <g fill="none" fill-rule="evenodd">
        <path d="M4.428 20.375c-1.92-1.575-3.18-2.96-3.779-4.157 1.846-5.539 5.192-9.278 10.036-11.22l.07-.148.632-.156-.001-.16c0-1.684.421-3.053 1.263-4.105 1.053 1.263 1.684 2.315 1.895 3.157l.078.316h.553L17.702.744v3.158h.316c.609 0 5.923 10.29 6.579 11.58l.052.104c.316.632.316 1.895-.631 2.527-.948.631-1.895.947-2.527.947-.631 0-1.579-.631-2.21-1.579-.375-.561-.582-1.04-.624-1.434l-.008-.145H17.07c-.528 0-.86-.196-1.269-.588l.006-.043c-.421 2.947 0 5.894 1.263 8.842-5.052.21-9.158-.948-12.316-3.474z" opacity=".2"/>
        <path stroke="#FFF" stroke-width=".632" d="M15.807 15.27c-.421 2.948 0 5.895 1.263 8.843-5.052.21-9.158-.948-12.316-3.474.21-5.474 2.421-10.105 6.632-13.895"/>
        <path stroke="#FFF" stroke-width=".632" d="M13.592 10.534c-.196 1.474.098 2.631.88 3.474 1.173 1.263 1.466 1.894 2.346 1.894h1.467c0 .421.196.948.587 1.58.586.947 1.466 1.578 2.053 1.578.586 0 1.466-.316 2.346-.947.88-.632.88-1.895.587-2.527-.293-.631-5.573-11.684-6.16-11.684h-3.226"/>
        <path stroke="#FFF" stroke-width=".632" d="M12.333 8.008c-.631-.632-.947-1.79-.947-3.474 0-1.684.421-3.053 1.263-4.105 1.053 1.263 1.684 2.315 1.895 3.157.21.843.316 1.685.316 2.527"/>
        <path stroke="#FFF" stroke-linecap="round" stroke-linejoin="round" stroke-width=".632" d="M17.702 3.902V.744l-2.527 3.158"/>
        <path stroke="#FFF" stroke-width=".632" d="M11.07 4.85C6.018 6.744 2.544 10.534.65 16.218c.63 1.263 2 2.737 4.104 4.421M5.07 17.165c-1.474-1.052-2.631-2.315-3.474-3.79M6.018 14.008c-1.053-.632-2-1.685-2.843-3.158M5.07 8.64c.632 1.683 1.263 2.736 1.895 3.157M6.965 7.06c.21 1.053.737 2 1.579 2.842M8.86 5.797l.947 2.21"/>
    </g>
</svg>
