<svg xmlns="http://www.w3.org/2000/svg" width="56" height="56" viewBox="0 0 56 56">
    <g fill="none" fill-rule="evenodd">
        <path fill="#27C5C8" d="M40.88 41.528c3.118-2.606 5.158-4.896 6.12-6.87-2.923-9-8.22-15.078-15.89-18.231l-.11-.243-1.001-.256.001-.257c0-2.737-.667-4.96-2-6.671-1.667 2.053-2.667 3.763-3 5.132l-.125.512H24l-4-5.13v5.13h-.5c-1 0-10 17.961-10.5 18.988-.5 1.026-.5 3.079 1 4.105 1.5 1.026 3 1.54 4 1.54s2.5-1.027 3.5-2.566c.615-.948.947-1.75.994-2.405l.006-.161H21c.836 0 1.361-.319 2.008-.956L23 33.12c.667 4.789 0 9.578-2 14.368 8 .342 14.5-1.54 19.5-5.645z" opacity=".2"/>
        <path stroke="#27C5C8" stroke-width="2" d="M23 33.118c.667 4.79 0 9.58-2 14.369 8 .342 14.5-1.54 19.5-5.645-.333-8.895-3.833-16.42-10.5-22.579"/>
        <path stroke="#27C5C8" stroke-width="2" d="M26.5 25.421c.333 2.395-.167 4.276-1.5 5.645-2 2.052-2.5 3.079-4 3.079h-2.5c0 .684-.333 1.54-1 2.566-1 1.539-2.5 2.565-3.5 2.565s-2.5-.513-4-1.54c-1.5-1.025-1.5-3.078-1-4.104.5-1.027 9.5-18.987 10.5-18.987H25"/>
        <path stroke="#27C5C8" stroke-width="2" d="M28.5 21.316c1-1.027 1.5-2.908 1.5-5.645 0-2.737-.667-4.96-2-6.671-1.667 2.053-2.667 3.763-3 5.132a17.29 17.29 0 0 0-.5 4.105"/>
        <path stroke="#27C5C8" stroke-linecap="round" stroke-linejoin="round" stroke-width="2" d="M20 14.645V9.513l4 5.132"/>
        <path stroke="#27C5C8" stroke-width="2" d="M30.5 16.184c8 3.08 13.5 9.237 16.5 18.474-1 2.053-3.167 4.447-6.5 7.184M40 36.197c2.333-1.71 4.167-3.763 5.5-6.158M38.5 31.066c1.667-1.027 3.167-2.737 4.5-5.132M40 22.342c-1 2.737-2 4.447-3 5.132M37 19.776c-.333 1.71-1.167 3.25-2.5 4.619M34 17.724l-1.5 3.592"/>
        <circle cx="27.5" cy="28.5" r="26.5" stroke="#27C5C8" stroke-width="2"/>
    </g>
</svg>
