<svg xmlns="http://www.w3.org/2000/svg" width="25" height="24" viewBox="0 0 25 24">
    <g fill="none" fill-rule="evenodd">
        <path stroke="#FFF" d="M9.214 20.429a3 3 0 0 0 6 0"/>
        <path fill="#FFF" d="M13.714 4.274V1.929a1.5 1.5 0 0 0-3 0v2.345h3z"/>
        <path stroke="#FFF" d="M21.212 18.904H3.39c-1.632 0 .777-1.699 1.459-3.33.807-1.935 1.003-3.301 1.003-5.051s.565-3.262 1.395-4.358c.83-1.096 2.576-2.315 4.967-2.315 2.392 0 4.103 1.257 4.924 2.315.821 1.058 1.496 1.947 1.496 4.513 0 2.567.5 3.702.998 4.895.61 1.463 2.893 3.331 1.58 3.331z"/>
    </g>
</svg>
