<svg xmlns="http://www.w3.org/2000/svg" width="25" height="24" viewBox="0 0 25 24">
    <path fill="#FFF" fill-rule="nonzero" d="M13.193 23.429H11.5V21.73c-3.427-.253-5.653-2.241-5.666-5.04h2.163c.139 1.697 1.429 2.824 3.503 3.077v-6.586l-1.012-.278c-2.719-.722-4.211-2.394-4.211-4.725 0-2.76 1.998-4.66 5.223-4.977V1.429h1.694v1.76c3.136.266 5.223 2.217 5.312 4.965h-2.15c-.05-1.583-1.303-2.774-3.162-3.002v6.194l1.088.266c3.123.836 4.552 2.38 4.552 4.914 0 3.002-2.074 4.901-5.64 5.193v1.71zm3.64-6.964c0-1.609-.94-2.553-3.695-3.037v6.383c2.55-.11 3.695-1.568 3.695-3.346zM7.85 8.128c0 1.54 1.088 2.564 3.71 2.995v-5.99c-2.323.105-3.71 1.365-3.71 2.995z" opacity=".5"/>
</svg>
