<svg xmlns="http://www.w3.org/2000/svg" width="24" height="24" viewBox="0 0 24 24">
    <path fill="#4F748C" fill-rule="nonzero" d="M13.431.458l.607 3.475c.343.084.706.205 1.09.361.384.157.765.34 1.142.55L19.1 2.79l2.033 2.055L19.1 7.747c.195.281.38.621.554 1.02.175.4.324.806.446 1.22l3.408.54v2.866l-3.443.651a14.547 14.547 0 0 1-.915 2.217l2.013 2.853-2.013 2.027-2.879-1.987a13.744 13.744 0 0 1-2.232.925l-.637 3.412h-2.852l-.598-3.411a16.875 16.875 0 0 1-1.247-.452 9.61 9.61 0 0 1-.99-.474l-2.87 1.987-1.995-2.027 1.97-2.853c-.223-.447-.405-.839-.548-1.175a14.42 14.42 0 0 1-.395-1.042l-3.379-.651v-2.866l3.418-.575c.104-.351.234-.72.39-1.107s.327-.769.513-1.146L2.85 4.845 4.886 2.79l2.828 2.017a22.479 22.479 0 0 1 2.237-.914l.598-3.435h2.882zM12 8a4 4 0 1 0 0 8 4 4 0 0 0 0-8z"/>
</svg>
