<svg xmlns="http://www.w3.org/2000/svg" width="330" height="105" viewBox="0 0 330 105">
    <g fill="#D1DAE1" fill-rule="evenodd">
        <path d="M284.291 60.19c-.36.012-.714.101-1.036.261l-6.455-5.933 5.203-.201c.463 1.19 1.733 1.877 3.002 1.623 1.268-.254 2.165-1.374 2.12-2.65-.046-1.274-1.02-2.33-2.303-2.496-1.284-.166-2.501.606-2.88 1.826l-5.082.19 6.022-6.42c.373.184.787.274 1.204.261a2.623 2.623 0 0 0 2.364-1.687 2.56 2.56 0 0 0-.68-2.797 2.656 2.656 0 0 0-2.883-.449 2.583 2.583 0 0 0-1.523 2.453c.013.355.103.704.265 1.02l-7.226 7.714c-.515-1.198-1.853-1.833-3.125-1.482-1.272.35-2.081 1.577-1.89 2.864.19 1.288 1.322 2.235 2.642 2.213a2.631 2.631 0 0 0 2.41-1.84l7.623 6.954a2.59 2.59 0 0 0-.265 1.187 2.59 2.59 0 0 0 1.713 2.329 2.653 2.653 0 0 0 2.838-.67c.722-.769.902-1.89.456-2.84a2.63 2.63 0 0 0-2.49-1.501l-.024.071z"/>
        <path d="M264.154 46.948c-.108.486.143.98.602 1.187l6.142 2.1a.89.89 0 0 0 .707-.096.866.866 0 0 0 .401-.58l2.204-8.473a1.016 1.016 0 0 0-.59-1.246l-2.409-.854s-9.285-4.319-18.547-3.405c-4.21.274-8.08 2.368-10.574 5.719a20.792 20.792 0 0 0-3.614 11.937 20.936 20.936 0 0 0 2.06 10.086c2.162 4.608 6.62 7.761 11.743 8.306 9.225 1.246 18.547-2.73 18.547-2.73l2.469-.77c.478-.188.741-.696.614-1.187l-2.035-8.366a.877.877 0 0 0-.386-.6.902.902 0 0 0-.71-.123l-6.179 1.886c-.475.191-.74.694-.626 1.187l.241.795a.804.804 0 0 1-.482.937c-3.047 1.246-9.057 2.373-13.621-.083-4.565-2.456-4.216-8.413-4.204-9.136.012-.724.181-6.633 4.384-8.781 4.734-2.433 10.575-1.02 13.622.403a.839.839 0 0 1 .47.938l-.23.949zm-.386 18.76c.729.224 1.158.965.984 1.697a1.457 1.457 0 0 1-1.646 1.091 1.433 1.433 0 0 1-.984-1.697 1.457 1.457 0 0 1 1.646-1.091zm-6.274.32c.728.225 1.157.965.983 1.698a1.457 1.457 0 0 1-1.646 1.09 1.433 1.433 0 0 1-.984-1.697 1.457 1.457 0 0 1 1.647-1.09zm-5.878-.985c.513.143.897.563.988 1.08.122.465-.007.959-.343 1.306-.336.348-.83.5-1.307.403a1.42 1.42 0 0 1-1-1.092c-.119-.465.014-.958.353-1.303a1.423 1.423 0 0 1 1.31-.394zM241.68 49.69a17.194 17.194 0 0 1 5.215-8.614.815.815 0 0 1 1.096.142.869.869 0 0 1-.144 1.127 15.712 15.712 0 0 0-4.637 7.737c-1.19 4.902.128 10.068 3.528 13.835.12.142.253.273.374.403.244.219.444.48.59.772a.763.763 0 0 1-.18.89.866.866 0 0 1-.82 0c-.25-.13-.47-.308-.65-.522-3.85-3.95-5.555-9.475-4.589-14.868 0-.32.145-.64.217-.95m9.635-7.605a1.384 1.384 0 0 1-1-1.08c-.119-.465.015-.958.353-1.304a1.423 1.423 0 0 1 1.31-.393c.515.138.902.56.987 1.08.146.47.027.982-.314 1.341-.34.36-.85.514-1.336.403v-.047zm7.552-1.923a1.386 1.386 0 0 1-1.024 1.056 1.422 1.422 0 0 1-1.3-.429 1.373 1.373 0 0 1-.314-1.315c.077-.514.446-.94.95-1.094a1.387 1.387 0 0 1 1.412.368c.36.38.467.93.276 1.414zm4.624 1.543a1.433 1.433 0 0 1-.974-1.688 1.456 1.456 0 0 1 1.625-1.1c.72.228 1.144.961.974 1.688a1.456 1.456 0 0 1-1.625 1.1z"/>
        <path fill-rule="nonzero" d="M69.695 70.763h-3.132V53.367H45.607v17.396h-3.155V34.489h3.155v16.292H66.6V34.489h3.096zM74.645 56.88a15.632 15.632 0 0 1 1.53-6.966c1.914-4.08 6.096-6.659 10.658-6.573a11.352 11.352 0 0 1 8.852 3.773 14.433 14.433 0 0 1 3.384 9.92v.617a15.795 15.795 0 0 1-1.53 7.048 11.351 11.351 0 0 1-4.31 4.818 11.984 11.984 0 0 1-6.348 1.756 11.34 11.34 0 0 1-8.84-3.774 14.398 14.398 0 0 1-3.396-10.002v-.617zm3.035.818a12.076 12.076 0 0 0 2.541 7.939 8.626 8.626 0 0 0 6.624 3.083 8.626 8.626 0 0 0 6.624-3.083 12.472 12.472 0 0 0 2.541-8.188v-.57a13.415 13.415 0 0 0-1.204-5.647 9.14 9.14 0 0 0-3.252-3.975 8.522 8.522 0 0 0-4.817-1.412 8.114 8.114 0 0 0-6.6 3.132 12.45 12.45 0 0 0-2.554 8.176l.097.545zM116.1 46.355a11.364 11.364 0 0 0-2.06-.178 7.407 7.407 0 0 0-4.818 1.566 8.414 8.414 0 0 0-2.758 4.545v18.51h-3.047V43.804h2.951v4.283c1.326-3 4.39-4.886 7.708-4.746a5.115 5.115 0 0 1 2 .32l.023 2.694zM136.405 63.904a4.24 4.24 0 0 0-1.806-3.56 13.862 13.862 0 0 0-5.456-2.124 25.24 25.24 0 0 1-5.649-1.744 7.615 7.615 0 0 1-2.987-2.373 5.868 5.868 0 0 1-.975-3.441 6.39 6.39 0 0 1 2.71-5.268 11.05 11.05 0 0 1 6.925-2.077c2.639-.13 5.24.66 7.347 2.23a7.079 7.079 0 0 1 2.77 5.815h-3.035a4.794 4.794 0 0 0-2.012-3.94 9.183 9.183 0 0 0-9.851-.26 4.041 4.041 0 0 0-1.82 3.405 3.658 3.658 0 0 0 1.506 3.12 15.803 15.803 0 0 0 5.492 2.03 26.628 26.628 0 0 1 6.022 1.97 7.82 7.82 0 0 1 2.939 2.515c1.8 3.028 1.013 6.905-1.83 9.018a12.08 12.08 0 0 1-7.347 2.053 12.379 12.379 0 0 1-7.745-2.278 7.005 7.005 0 0 1-2.975-5.767h3.036a5.19 5.19 0 0 0 2.228 4.058 9.232 9.232 0 0 0 5.444 1.46 8.696 8.696 0 0 0 5.106-1.377 4.092 4.092 0 0 0 1.963-3.465zM155.784 71.273a12.047 12.047 0 0 1-6.311-1.697 11.622 11.622 0 0 1-4.384-4.746 14.51 14.51 0 0 1-1.566-6.788v-1.008a15.597 15.597 0 0 1 1.53-7 12.012 12.012 0 0 1 4.263-4.901 10.626 10.626 0 0 1 5.914-1.78 9.957 9.957 0 0 1 7.9 3.346 13.474 13.474 0 0 1 2.915 9.148v1.673h-19.51v.57a11.203 11.203 0 0 0 2.649 7.594 8.543 8.543 0 0 0 6.72 3.061 9.917 9.917 0 0 0 4.276-.878 9.462 9.462 0 0 0 3.456-2.788l1.891 1.424c-2.174 3.163-5.871 4.973-9.743 4.77zm-.578-25.428a7.616 7.616 0 0 0-5.757 2.468 11.365 11.365 0 0 0-2.843 6.62h16.416v-.272a9.84 9.84 0 0 0-2.252-6.325 7.042 7.042 0 0 0-5.564-2.491zM178.089 65.672h16.717v5.09h-23.149V34.49h6.432zM198.563 36.78a3.212 3.212 0 0 1 .904-2.374 4.032 4.032 0 0 1 5.118.083c.624.633.955 1.492.916 2.373a3.084 3.084 0 0 1-.916 2.29 4.032 4.032 0 0 1-5.143 0 3.117 3.117 0 0 1-.879-2.373zm6.528 33.983h-6.142v-26.96h6.142v26.96zM216.966 43.804l.18 3.108a9.89 9.89 0 0 1 7.962-3.56c5.7 0 8.603 3.212 8.707 9.636v17.798h-6.154v-17.49a5.507 5.507 0 0 0-1.12-3.797 4.742 4.742 0 0 0-3.685-1.186c-2.348-.079-4.519 1.221-5.528 3.31v19.14h-6.155v-26.96h5.793z"/>
    </g>
</svg>
