<svg xmlns="http://www.w3.org/2000/svg" width="320" height="106" viewBox="0 0 320 106">
    <g fill="#D1DAE1" fill-rule="evenodd">
        <path d="M275.676 61.19c-.35.012-.692.101-1.004.261l-6.26-5.933 5.045-.201a2.562 2.562 0 0 0 2.911 1.623c1.23-.254 2.1-1.374 2.056-2.65-.044-1.274-.988-2.33-2.233-2.496a2.569 2.569 0 0 0-2.792 1.826l-4.929.19 5.84-6.42c.362.184.763.274 1.168.261a2.55 2.55 0 0 0 2.292-1.687 2.615 2.615 0 0 0-.66-2.797 2.515 2.515 0 0 0-2.795-.449 2.591 2.591 0 0 0-1.477 2.453c.012.355.1.704.257 1.02l-7.007 7.714a2.535 2.535 0 0 0-3.03-1.482c-1.234.35-2.019 1.577-1.834 2.864.185 1.288 1.283 2.235 2.563 2.213a2.565 2.565 0 0 0 2.336-1.84l7.393 6.954c-.176.37-.264.776-.257 1.187a2.584 2.584 0 0 0 1.66 2.329 2.519 2.519 0 0 0 2.753-.67c.7-.769.874-1.89.442-2.84a2.542 2.542 0 0 0-2.414-1.501l-.024.071z"/>
        <path d="M256.15 47.948c-.106.486.138.98.583 1.187l5.956 2.1c.232.068.48.033.685-.096a.867.867 0 0 0 .39-.58l2.137-8.473a1.025 1.025 0 0 0-.572-1.246l-2.336-.854s-9.004-4.319-17.985-3.405c-4.082.274-7.835 2.368-10.254 5.719a21.256 21.256 0 0 0-3.504 11.937 21.495 21.495 0 0 0 1.997 10.086c2.096 4.608 6.419 7.761 11.387 8.306 8.946 1.246 17.985-2.73 17.985-2.73l2.394-.77c.464-.188.72-.696.596-1.187l-1.974-8.366a.88.88 0 0 0-.373-.6.853.853 0 0 0-.69-.123l-5.99 1.886c-.462.191-.72.694-.608 1.187l.234.795a.81.81 0 0 1-.468.937c-2.954 1.246-8.782 2.373-13.208-.083-4.427-2.456-4.088-8.413-4.076-9.136.011-.724.175-6.633 4.25-8.781 4.59-2.433 10.255-1.02 13.21.403a.846.846 0 0 1 .455.938l-.222.949zm-.375 18.76c.707.224 1.123.965.954 1.697a1.414 1.414 0 0 1-1.596 1.091 1.439 1.439 0 0 1-.954-1.697 1.414 1.414 0 0 1 1.596-1.091zm-6.084.32c.706.225 1.122.965.954 1.698a1.414 1.414 0 0 1-1.597 1.09 1.439 1.439 0 0 1-.954-1.697 1.414 1.414 0 0 1 1.597-1.09zm-5.7-.985c.498.143.87.563.958 1.08.119.465-.007.959-.332 1.306-.326.348-.805.5-1.268.403a1.404 1.404 0 0 1-.97-1.092 1.404 1.404 0 0 1 .343-1.303 1.353 1.353 0 0 1 1.27-.394zm-9.635-15.354a17.296 17.296 0 0 1 5.057-8.614.774.774 0 0 1 1.063.142.888.888 0 0 1-.14 1.127 15.811 15.811 0 0 0-4.496 7.737c-1.153 4.902.124 10.068 3.422 13.835.116.142.245.273.362.403.236.219.43.48.572.772a.78.78 0 0 1-.175.89.818.818 0 0 1-.794 0 2.074 2.074 0 0 1-.631-.522c-3.734-3.95-5.387-9.475-4.45-14.868 0-.32.14-.64.21-.95m9.344-7.605c-.5-.142-.877-.561-.97-1.08a1.404 1.404 0 0 1 .342-1.304 1.353 1.353 0 0 1 1.27-.393c.5.138.875.56.958 1.08.141.47.025.982-.305 1.341-.33.36-.824.514-1.295.403v-.047zm7.322-1.923c-.105.516-.49.926-.993 1.056a1.354 1.354 0 0 1-1.26-.429 1.405 1.405 0 0 1-.305-1.315c.075-.514.433-.94.921-1.094a1.317 1.317 0 0 1 1.37.368c.35.38.453.93.267 1.414zm4.485 1.543a1.439 1.439 0 0 1-.945-1.688 1.415 1.415 0 0 1 1.575-1.1c.7.228 1.11.961.945 1.688a1.415 1.415 0 0 1-1.575 1.1z"/>
        <path fill-rule="nonzero" d="M67.583 71.763h-3.037V54.367h-20.32v17.396h-3.06V35.489h3.06v16.292H64.58V35.489h3.002zM72.383 57.88a16.043 16.043 0 0 1 1.483-6.966c1.857-4.08 5.912-6.659 10.336-6.573a10.853 10.853 0 0 1 8.584 3.773 14.722 14.722 0 0 1 3.281 9.92v.617a16.212 16.212 0 0 1-1.483 7.048 11.241 11.241 0 0 1-4.18 4.818 11.357 11.357 0 0 1-6.156 1.756 10.841 10.841 0 0 1-8.572-3.774 14.686 14.686 0 0 1-3.293-10.002v-.617zm2.943.818a12.331 12.331 0 0 0 2.464 7.939 8.265 8.265 0 0 0 6.423 3.083 8.265 8.265 0 0 0 6.424-3.083 12.742 12.742 0 0 0 2.464-8.188v-.57a13.772 13.772 0 0 0-1.168-5.647 9.087 9.087 0 0 0-3.153-3.975 8.083 8.083 0 0 0-4.672-1.412 7.78 7.78 0 0 0-6.4 3.132 12.717 12.717 0 0 0-2.476 8.176l.094.545zM112.581 47.355a10.695 10.695 0 0 0-1.997-.178 7.04 7.04 0 0 0-4.671 1.566 8.463 8.463 0 0 0-2.675 4.545v18.51h-2.955V44.804h2.862v4.283c1.286-3 4.257-4.886 7.474-4.746.661-.028 1.32.081 1.939.32l.023 2.694zM132.272 64.904a4.283 4.283 0 0 0-1.752-3.56 13.205 13.205 0 0 0-5.29-2.124 23.934 23.934 0 0 1-5.478-1.744 7.428 7.428 0 0 1-2.896-2.373 6.004 6.004 0 0 1-.946-3.441 6.453 6.453 0 0 1 2.627-5.268 10.488 10.488 0 0 1 6.716-2.077c2.559-.13 5.08.66 7.124 2.23a7.164 7.164 0 0 1 2.686 5.815h-2.943a4.843 4.843 0 0 0-1.95-3.94 8.678 8.678 0 0 0-9.554-.26 4.077 4.077 0 0 0-1.763 3.405 3.7 3.7 0 0 0 1.46 3.12 15.036 15.036 0 0 0 5.325 2.03 25.274 25.274 0 0 1 5.84 1.97 7.652 7.652 0 0 1 2.85 2.515c1.744 3.028.981 6.905-1.776 9.018a11.452 11.452 0 0 1-7.124 2.053 11.745 11.745 0 0 1-7.51-2.278 7.074 7.074 0 0 1-2.884-5.767h2.943c.059 1.62.858 3.12 2.16 4.058a8.748 8.748 0 0 0 5.28 1.46 8.24 8.24 0 0 0 4.951-1.377 4.12 4.12 0 0 0 1.904-3.465zM151.063 72.273a11.413 11.413 0 0 1-6.12-1.697 11.493 11.493 0 0 1-4.25-4.746 14.884 14.884 0 0 1-1.519-6.788v-1.008a16.007 16.007 0 0 1 1.483-7 11.91 11.91 0 0 1 4.134-4.901 10.082 10.082 0 0 1 5.735-1.78 9.519 9.519 0 0 1 7.661 3.346 13.758 13.758 0 0 1 2.826 9.148v1.673h-18.92v.57a11.423 11.423 0 0 0 2.57 7.594 8.181 8.181 0 0 0 6.517 3.061 9.368 9.368 0 0 0 4.146-.878 9.235 9.235 0 0 0 3.352-2.788l1.833 1.424c-2.108 3.163-5.693 4.973-9.448 4.77zm-.56-25.428a7.282 7.282 0 0 0-5.583 2.468 11.545 11.545 0 0 0-2.756 6.62h15.918v-.272a10.031 10.031 0 0 0-2.184-6.325 6.741 6.741 0 0 0-5.396-2.491zM172.692 66.672h16.21v5.09h-22.446V35.49h6.236zM192.546 37.78a3.27 3.27 0 0 1 .876-2.374 3.82 3.82 0 0 1 4.964.083c.605.633.926 1.492.887 2.373a3.136 3.136 0 0 1-.887 2.29 3.82 3.82 0 0 1-4.987 0 3.174 3.174 0 0 1-.853-2.373zm6.33 33.983h-5.956v-26.96h5.956v26.96zM210.391 44.804l.176 3.108a9.468 9.468 0 0 1 7.72-3.56c5.527 0 8.342 3.212 8.443 9.636v17.798h-5.968v-17.49a5.629 5.629 0 0 0-1.086-3.797 4.51 4.51 0 0 0-3.574-1.186c-2.276-.079-4.38 1.221-5.36 3.31v19.14h-5.968v-26.96h5.617z"/>
    </g>
</svg>
