<svg xmlns="http://www.w3.org/2000/svg" xmlns:xlink="http://www.w3.org/1999/xlink" width="330" height="105" viewBox="0 0 330 105">
    <defs>
        <path id="a" d="M4.071 12.74h5.083v15.122h19.32V12.74h5.082v36.597h-5.083V32.222H9.154v17.115H4.071z"/>
        <path id="b" d="M48.65 46.447c3.018 0 5.088-1.125 6.209-3.375 1.12-2.25 1.681-4.755 1.681-7.512 0-2.491-.404-4.517-1.213-6.079-1.282-2.458-3.49-3.687-6.626-3.687-2.781 0-4.804 1.047-6.069 3.14-1.264 2.092-1.896 4.617-1.896 7.573 0 2.84.632 5.207 1.896 7.1 1.265 1.894 3.27 2.84 6.019 2.84zm.178-24.564c3.49 0 6.44 1.146 8.85 3.438 2.411 2.292 3.616 5.663 3.616 10.115 0 4.301-1.062 7.856-3.186 10.663-2.124 2.807-5.42 4.21-9.887 4.21-3.726 0-6.684-1.242-8.876-3.725-2.192-2.483-3.287-5.817-3.287-10.002 0-4.485 1.154-8.056 3.464-10.713s5.411-3.986 9.306-3.986z"/>
        <path id="c" d="M65.129 22.655h4.324v4.61c.354-.898 1.222-1.99 2.604-3.277 1.383-1.287 2.976-1.93 4.78-1.93.084 0 .227.008.43.024.202.017.547.05 1.036.1v4.733a6.895 6.895 0 0 0-.746-.1 10.298 10.298 0 0 0-.746-.024c-2.292 0-4.054.726-5.285 2.18-1.23 1.453-1.846 3.126-1.846 5.02v15.346H65.13V22.655zm19.825 18.311c.135 1.495.514 2.641 1.138 3.439 1.146 1.444 3.135 2.167 5.968 2.167 1.685 0 3.169-.361 4.45-1.084 1.281-.722 1.922-1.84 1.922-3.35 0-1.147-.514-2.019-1.543-2.617-.657-.365-1.955-.788-3.894-1.27l-3.616-.897c-2.31-.565-4.012-1.196-5.108-1.893-1.956-1.213-2.933-2.89-2.933-5.033 0-2.524.923-4.567 2.769-6.129 1.846-1.56 4.328-2.341 7.447-2.341 4.08 0 7.021 1.179 8.825 3.537 1.13 1.495 1.677 3.106 1.644 4.833h-4.3a5.144 5.144 0 0 0-1.086-2.765c-1.046-1.18-2.858-1.769-5.437-1.769-1.72 0-3.022.324-3.907.972-.885.648-1.328 1.503-1.328 2.566 0 1.163.582 2.093 1.745 2.79.674.415 1.67.78 2.984 1.096l3.01.723c3.27.78 5.461 1.536 6.574 2.267 1.77 1.146 2.655 2.948 2.655 5.406 0 2.375-.914 4.426-2.744 6.154-1.829 1.727-4.615 2.59-8.357 2.59-4.03 0-6.882-.9-8.56-2.702-1.677-1.802-2.575-4.032-2.693-6.69h4.375zm34.466-18.909c1.922 0 3.785.445 5.589 1.333 1.804.889 3.178 2.039 4.122 3.45.91 1.346 1.517 2.915 1.82 4.71.27 1.228.405 3.188.405 5.879h-19.85c.084 2.707.733 4.879 1.947 6.515 1.213 1.636 3.093 2.454 5.639 2.454 2.377 0 4.273-.773 5.69-2.317a7.777 7.777 0 0 0 1.719-3.115h4.476c-.118.98-.51 2.072-1.176 3.277-.666 1.204-1.412 2.188-2.238 2.952-1.383 1.329-3.094 2.225-5.133 2.69-1.096.266-2.335.4-3.718.4-3.371 0-6.229-1.21-8.572-3.626-2.343-2.416-3.515-5.8-3.515-10.152 0-4.285 1.18-7.765 3.54-10.439 2.36-2.674 5.445-4.01 9.255-4.01zm7.258 11.81c-.186-1.944-.616-3.497-1.29-4.66-1.247-2.159-3.33-3.238-6.246-3.238-2.09 0-3.843.743-5.26 2.23-1.416 1.486-2.166 3.375-2.25 5.667h15.046z"/>
        <path id="d" d="M136.065 12.74h5.032v32.238h18.814v4.36h-23.846V12.74zm28.196 10.04h4.627v26.557h-4.627V22.78zm0-10.04h4.627v5.082h-4.627V12.74zm11.505 9.915h4.324v3.787c1.282-1.561 2.639-2.682 4.072-3.363 1.433-.681 3.026-1.022 4.779-1.022 3.844 0 6.44 1.32 7.788 3.961.742 1.445 1.113 3.513 1.113 6.204v17.115h-4.628V32.521c0-1.628-.244-2.94-.733-3.936-.81-1.661-2.276-2.492-4.4-2.492-1.079 0-1.964.108-2.655.324-1.248.365-2.343 1.096-3.287 2.192-.759.88-1.252 1.79-1.48 2.728-.227.939-.341 2.28-.341 4.024v13.976h-4.552V22.655z"/>
    </defs>
    <g fill="none" fill-rule="evenodd">
        <path fill="#D1DAE1" d="M286.883 58.973c-.361 0-.722.118-1.084.237l-6.503-5.814 5.178-.238c.362.95 1.446 1.662 2.53 1.662 1.445 0 2.529-1.306 2.529-2.73 0-1.423-1.325-2.491-2.77-2.491-1.205 0-2.048.83-2.409 1.78l-5.058.237 6.022-6.408c.36.119.843.238 1.204.238 1.445 0 2.53-1.306 2.53-2.73 0-1.423-1.326-2.491-2.771-2.491-1.445 0-2.53 1.305-2.53 2.729 0 .356.121.712.242 1.068l-7.227 7.713c-.36-1.068-1.445-1.78-2.529-1.662-1.445 0-2.529 1.306-2.529 2.73 0 1.423 1.325 2.491 2.77 2.491 1.084 0 2.048-.83 2.409-1.78l7.587 7.001c-.12.356-.24.83-.24 1.187 0 1.424 1.324 2.491 2.77 2.491 1.445 0 2.529-1.305 2.529-2.729 0-1.542-1.205-2.61-2.65-2.491z"/>
        <path fill="#D1DAE1" d="M266.77 45.683c-.12.475.12 1.068.602 1.187l6.143 2.135c.481.119.963-.118 1.084-.712l2.167-8.424c.12-.475-.12-1.068-.602-1.305l-2.409-.831s-9.273-4.272-18.547-3.441c-4.817.475-8.31 2.61-10.599 5.695-2.408 3.204-3.492 7.713-3.613 11.985 0 4.153.603 7.12 2.048 10.086 2.047 4.271 5.901 7.475 11.803 8.306 9.273 1.186 18.668-2.73 18.668-2.73l2.408-.711c.482-.119.723-.712.603-1.187l-2.048-8.306c-.12-.593-.602-.83-1.084-.712l-6.142 1.899c-.482.118-.723.712-.602 1.186l.24.83c.12.357-.12.831-.481.95-3.011 1.305-9.033 2.373-13.61-.119-4.576-2.491-4.215-8.424-4.215-9.136 0-.712.24-6.645 4.336-8.78 4.697-2.374 10.598-1.069 13.61.355.36.119.601.593.48.95l-.24.83zm-.482 18.748c.482.118.843.593.964 1.068.24 1.068-.723 1.898-1.686 1.66-.482-.118-.843-.592-.964-1.067-.12-.95.723-1.899 1.686-1.661zm-6.262.356c.481.118.843.593.963 1.068.24 1.068-.723 1.898-1.686 1.66-.482-.118-.843-.592-.964-1.067-.12-1.068.723-1.899 1.687-1.661zm-5.902-1.068c.482.119.843.593.964 1.068.24 1.068-.723 1.898-1.687 1.661-.481-.119-.843-.593-.963-1.068-.12-.95.723-1.898 1.686-1.661zm-9.876-15.307c1.445-5.695 5.059-8.543 5.179-8.662.361-.237.843-.237 1.084.119.24.356.12.83-.12 1.186-.12.119-3.252 2.61-4.698 7.713-1.324 4.746.241 10.086 3.493 13.883l.361.356c.241.237.482.475.603.83.12.356.12.712-.241.831-.241.119-.602.119-.843 0s-.482-.356-.602-.475c-3.734-3.915-5.661-9.61-4.577-14.832.24-.356.24-.593.361-.949zm9.635-7.594c-.482-.119-.843-.593-.963-1.068-.241-1.068.722-1.898 1.686-1.661.482.119.843.593.963 1.068.12 1.068-.722 1.898-1.686 1.661zm7.588-1.898c-.12.474-.482.949-1.084 1.067-.964.238-1.807-.711-1.566-1.78.12-.474.482-.949 1.084-1.067.964-.238 1.807.712 1.566 1.78zm4.576 1.542c-.481-.119-.843-.593-.963-1.068-.24-1.068.723-1.898 1.686-1.661.482.119.843.593.964 1.068.12.95-.723 1.898-1.687 1.661z"/>
        <g fill-rule="nonzero">
            <g transform="translate(37.334 19.657)">
                <use fill="#000" xlink:href="#a"/>
                <use fill="#D1DAE1" xlink:href="#a"/>
            </g>
            <g transform="translate(37.334 19.657)">
                <use fill="#000" xlink:href="#b"/>
                <use fill="#D1DAE1" xlink:href="#b"/>
            </g>
            <g transform="translate(37.334 19.657)">
                <use fill="#000" xlink:href="#c"/>
                <use fill="#D1DAE1" xlink:href="#c"/>
            </g>
            <g transform="translate(37.334 19.657)">
                <use fill="#000" xlink:href="#d"/>
                <use fill="#D1DAE1" xlink:href="#d"/>
            </g>
        </g>
    </g>
</svg>
