<svg xmlns="http://www.w3.org/2000/svg" width="189" height="60" viewBox="0 0 189 60">
    <g fill="#D1DAE1" fill-rule="evenodd" opacity=".5">
        <path d="M162.821 34.394a1.448 1.448 0 0 0-.593.15l-3.697-3.39 2.98-.116c.265.68.992 1.073 1.719.928a1.497 1.497 0 0 0 1.214-1.514 1.502 1.502 0 0 0-1.319-1.427 1.518 1.518 0 0 0-1.649 1.043l-2.91.109 3.448-3.668c.214.105.451.156.69.149a1.502 1.502 0 0 0 1.354-.964 1.46 1.46 0 0 0-.39-1.598 1.524 1.524 0 0 0-1.65-.257c-.553.25-.898.804-.873 1.402.007.203.059.402.152.583l-4.139 4.407a1.511 1.511 0 0 0-1.79-.847c-.728.2-1.192.902-1.082 1.637.109.736.757 1.277 1.513 1.265a1.506 1.506 0 0 0 1.38-1.051l4.366 3.973a1.477 1.477 0 0 0-.152.678 1.48 1.48 0 0 0 .981 1.33c.571.209 1.213.057 1.626-.382.413-.439.516-1.08.261-1.623a1.507 1.507 0 0 0-1.426-.857l-.014.04z"/>
        <path d="M151.288 26.827a.6.6 0 0 0 .345.678l3.518 1.2a.511.511 0 0 0 .404-.054.495.495 0 0 0 .23-.332l1.263-4.841a.58.58 0 0 0-.338-.712l-1.38-.488s-5.318-2.468-10.622-1.946a8.218 8.218 0 0 0-6.057 3.268 11.862 11.862 0 0 0-2.069 6.821 11.94 11.94 0 0 0 1.18 5.763c1.238 2.634 3.79 4.436 6.725 4.747 5.284.712 10.622-1.56 10.622-1.56l1.415-.44a.574.574 0 0 0 .351-.679l-1.165-4.78a.5.5 0 0 0-.221-.343.518.518 0 0 0-.407-.07l-3.539 1.078a.588.588 0 0 0-.358.678l.138.454a.46.46 0 0 1-.276.536c-1.745.712-5.187 1.356-7.802-.048-2.614-1.403-2.414-4.807-2.407-5.22.007-.414.103-3.79 2.51-5.018 2.712-1.39 6.057-.583 7.802.23a.48.48 0 0 1 .27.536l-.132.542zm-.22 10.72a.819.819 0 0 1 .563.97.834.834 0 0 1-.943.624.819.819 0 0 1-.563-.97c.1-.419.51-.69.942-.624zm-3.594.183a.819.819 0 0 1 .563.97.834.834 0 0 1-.943.624.819.819 0 0 1-.563-.97c.1-.419.51-.69.943-.624zm-3.367-.562a.785.785 0 0 1 .566.617.784.784 0 0 1-.196.746.816.816 0 0 1-.749.23.812.812 0 0 1-.572-.624.784.784 0 0 1 .201-.745.816.816 0 0 1 .75-.224zm-5.69-8.774a9.821 9.821 0 0 1 2.987-4.923.468.468 0 0 1 .627.082.496.496 0 0 1-.083.644 8.974 8.974 0 0 0-2.655 4.42 8.707 8.707 0 0 0 2.02 7.906c.07.082.146.156.215.231.14.125.254.274.338.44a.435.435 0 0 1-.104.51.497.497 0 0 1-.469 0 1.217 1.217 0 0 1-.372-.3 9.695 9.695 0 0 1-2.628-8.495c0-.183.082-.366.124-.542m5.518-4.347a.792.792 0 0 1-.572-.617.784.784 0 0 1 .201-.744.816.816 0 0 1 .75-.225c.296.078.517.32.566.617a.777.777 0 0 1-.18.766.809.809 0 0 1-.765.23v-.027zm4.325-1.098a.793.793 0 0 1-.586.603.815.815 0 0 1-.745-.245.783.783 0 0 1-.18-.751.777.777 0 0 1 .544-.626.796.796 0 0 1 .81.21.763.763 0 0 1 .157.809zm2.649.881a.819.819 0 0 1-.558-.964.834.834 0 0 1 .93-.629c.413.13.655.55.558.965a.834.834 0 0 1-.93.628z"/>
        <path fill-rule="nonzero" d="M39.916 40.436h-1.793v-9.94H26.12v9.94h-1.807V19.708h1.807v9.31h12.023v-9.31h1.773zM42.751 32.503a8.916 8.916 0 0 1 .876-3.98c1.097-2.332 3.492-3.806 6.105-3.757a6.508 6.508 0 0 1 5.07 2.156 8.236 8.236 0 0 1 1.938 5.669v.352a9.009 9.009 0 0 1-.876 4.028 6.492 6.492 0 0 1-2.47 2.753 6.875 6.875 0 0 1-3.635 1.003 6.501 6.501 0 0 1-5.063-2.156 8.215 8.215 0 0 1-1.945-5.716v-.352zm1.738.468a6.89 6.89 0 0 0 1.456 4.536 4.945 4.945 0 0 0 3.794 1.761c1.469 0 2.86-.646 3.793-1.761a7.116 7.116 0 0 0 1.456-4.679v-.325a7.651 7.651 0 0 0-.69-3.228 5.225 5.225 0 0 0-1.862-2.271 4.889 4.889 0 0 0-2.76-.807 4.651 4.651 0 0 0-3.78 1.79 7.103 7.103 0 0 0-1.462 4.672l.055.312zM66.493 26.488a6.523 6.523 0 0 0-1.18-.101 4.249 4.249 0 0 0-2.758.895 4.806 4.806 0 0 0-1.58 2.597v10.577H59.23V25.031h1.69v2.447c.76-1.714 2.514-2.792 4.414-2.712.39-.015.78.047 1.146.183l.013 1.54zM78.123 36.517a2.42 2.42 0 0 0-1.035-2.034 7.95 7.95 0 0 0-3.124-1.214 14.48 14.48 0 0 1-3.235-.997 4.36 4.36 0 0 1-1.711-1.356 3.347 3.347 0 0 1-.559-1.966 3.649 3.649 0 0 1 1.552-3.01 6.34 6.34 0 0 1 3.966-1.187 6.52 6.52 0 0 1 4.208 1.274 4.042 4.042 0 0 1 1.587 3.323h-1.739a2.738 2.738 0 0 0-1.152-2.251 5.27 5.27 0 0 0-5.642-.15 2.308 2.308 0 0 0-1.042 1.946 2.089 2.089 0 0 0 .863 1.784 9.063 9.063 0 0 0 3.145 1.16c1.192.236 2.35.614 3.449 1.125a4.476 4.476 0 0 1 1.683 1.437 3.91 3.91 0 0 1-1.048 5.153 6.93 6.93 0 0 1-4.208 1.173 7.101 7.101 0 0 1-4.435-1.302 4 4 0 0 1-1.704-3.295h1.738a2.964 2.964 0 0 0 1.276 2.32 5.297 5.297 0 0 0 3.118.833 4.99 4.99 0 0 0 2.925-.786 2.337 2.337 0 0 0 1.124-1.98zM89.222 40.727a6.912 6.912 0 0 1-3.615-.97 6.647 6.647 0 0 1-2.51-2.711 8.276 8.276 0 0 1-.897-3.879v-.576a8.895 8.895 0 0 1 .876-4 6.869 6.869 0 0 1 2.441-2.8c1-.666 2.18-1.02 3.387-1.018a5.709 5.709 0 0 1 4.525 1.912 7.688 7.688 0 0 1 1.67 5.228v.956H83.924v.325a6.393 6.393 0 0 0 1.518 4.34 4.898 4.898 0 0 0 3.849 1.75 5.69 5.69 0 0 0 2.448-.503 5.417 5.417 0 0 0 1.98-1.593l1.083.814a6.369 6.369 0 0 1-5.58 2.725zm-.332-14.53a4.367 4.367 0 0 0-3.297 1.41 6.487 6.487 0 0 0-1.628 3.784h9.402v-.156a5.615 5.615 0 0 0-1.29-3.614 4.037 4.037 0 0 0-3.187-1.424zM101.996 37.527h9.574v2.909H98.313V19.708h3.683zM113.723 21.017a1.833 1.833 0 0 1 .517-1.356 2.314 2.314 0 0 1 2.932.047c.357.362.546.852.524 1.356a1.76 1.76 0 0 1-.524 1.309 2.313 2.313 0 0 1-2.946 0 1.78 1.78 0 0 1-.503-1.356zm3.738 19.419h-3.518V25.03h3.518v15.405zM124.262 25.03l.104 1.777a5.67 5.67 0 0 1 4.56-2.034c3.264 0 4.927 1.835 4.987 5.506v10.17h-3.525v-9.994a3.142 3.142 0 0 0-.642-2.17 2.72 2.72 0 0 0-2.11-.678 3.387 3.387 0 0 0-3.167 1.892v10.937h-3.524V25.03h3.317z"/>
    </g>
</svg>
