<svg xmlns="http://www.w3.org/2000/svg" xmlns:xlink="http://www.w3.org/1999/xlink" width="189" height="60" viewBox="0 0 189 60">
    <defs>
        <path id="a" d="M2.332 7.28h2.91v8.641h11.066V7.28h2.91v20.913h-2.91v-9.78H5.243v9.78H2.332z"/>
        <path id="b" d="M27.864 26.541c1.728 0 2.913-.643 3.555-1.929.642-1.286.963-2.716.963-4.292 0-1.423-.232-2.581-.695-3.473-.734-1.405-1.999-2.107-3.794-2.107-1.594 0-2.752.597-3.476 1.793-.724 1.196-1.087 2.639-1.087 4.328 0 1.623.363 2.975 1.087 4.057.724 1.082 1.873 1.623 3.447 1.623zm.101-14.037c1.999 0 3.688.655 5.069 1.965 1.38 1.31 2.07 3.236 2.07 5.78 0 2.458-.607 4.49-1.824 6.093-1.216 1.604-3.104 2.406-5.663 2.406-2.133 0-3.828-.71-5.083-2.128-1.255-1.42-1.883-3.324-1.883-5.716 0-2.563.662-4.603 1.984-6.122 1.323-1.518 3.1-2.278 5.33-2.278z"/>
        <path id="c" d="M37.3 12.946h2.477v2.633c.203-.512.7-1.136 1.492-1.872.792-.735 1.704-1.103 2.737-1.103.049 0 .13.005.247.014.115.01.313.029.593.057v2.705a3.957 3.957 0 0 0-.427-.057 5.912 5.912 0 0 0-.427-.014c-1.313 0-2.322.415-3.027 1.246a4.304 4.304 0 0 0-1.057 2.868v8.77H37.3V12.946zm11.355 10.463c.078.855.295 1.51.652 1.965.657.826 1.796 1.239 3.418 1.239.966 0 1.815-.207 2.549-.62.734-.413 1.1-1.05 1.1-1.914 0-.655-.294-1.154-.883-1.495-.376-.21-1.12-.451-2.23-.726l-2.071-.513c-1.323-.323-2.298-.683-2.926-1.082-1.12-.693-1.68-1.651-1.68-2.876 0-1.442.529-2.61 1.586-3.502 1.057-.892 2.48-1.338 4.265-1.338 2.337 0 4.022.674 5.055 2.022.647.854.96 1.774.941 2.762H55.97a2.936 2.936 0 0 0-.623-1.58c-.598-.675-1.636-1.011-3.113-1.011-.985 0-1.731.185-2.238.555-.507.37-.76.859-.76 1.466 0 .664.333 1.196.999 1.595.386.237.956.446 1.709.626l1.723.413c1.873.446 3.129.878 3.766 1.295 1.014.655 1.52 1.685 1.52 3.09 0 1.357-.523 2.529-1.57 3.516-1.048.987-2.644 1.48-4.787 1.48-2.308 0-3.942-.514-4.903-1.544-.96-1.03-1.475-2.304-1.542-3.823h2.505zm19.74-10.805c1.101 0 2.168.254 3.201.762s1.82 1.165 2.36 1.971c.522.77.87 1.666 1.043 2.691.155.702.232 1.822.232 3.36H63.862c.048 1.547.42 2.788 1.115 3.723.696.934 1.772 1.402 3.23 1.402 1.361 0 2.448-.441 3.259-1.324a4.441 4.441 0 0 0 .984-1.78h2.564c-.068.56-.292 1.184-.674 1.872-.38.689-.808 1.25-1.281 1.687-.792.76-1.772 1.272-2.94 1.538-.628.152-1.337.228-2.13.228-1.93 0-3.567-.69-4.909-2.072-1.342-1.38-2.013-3.314-2.013-5.8 0-2.45.676-4.438 2.028-5.966 1.351-1.528 3.118-2.292 5.3-2.292zm4.157 6.748c-.106-1.11-.353-1.998-.739-2.662-.714-1.234-1.907-1.85-3.577-1.85-1.197 0-2.201.424-3.012 1.273-.811.85-1.241 1.93-1.29 3.24h8.618z"/>
        <path id="d" d="M77.928 7.28h2.882V25.7h10.775v2.492H77.928V7.28zm16.148 5.737h2.65v15.176h-2.65V13.017zm0-5.737h2.65v2.904h-2.65V7.28zm6.59 5.666h2.477v2.164c.733-.892 1.51-1.533 2.331-1.922.821-.39 1.733-.584 2.738-.584 2.201 0 3.688.755 4.46 2.264.425.825.638 2.007.638 3.544v9.78h-2.65v-9.609c0-.93-.14-1.68-.42-2.249-.464-.95-1.304-1.424-2.52-1.424-.619 0-1.126.062-1.521.185-.715.21-1.343.627-1.883 1.253-.435.503-.717 1.023-.847 1.56-.13.535-.196 1.302-.196 2.298v7.987h-2.607V12.946z"/>
    </defs>
    <g fill="none" fill-rule="evenodd" opacity=".5">
        <path fill="#D1DAE1" d="M164.306 33.699c-.207 0-.414.067-.621.135l-3.725-3.322 2.966-.136c.207.543.828.95 1.449.95.828 0 1.448-.746 1.448-1.56 0-.814-.758-1.424-1.586-1.424-.69 0-1.173.475-1.38 1.017l-2.897.136 3.45-3.662c.206.068.482.136.689.136.828 0 1.448-.746 1.448-1.56 0-.813-.758-1.423-1.586-1.423-.828 0-1.449.745-1.449 1.56 0 .202.07.406.138.61l-4.138 4.407c-.207-.61-.828-1.017-1.449-.95-.828 0-1.448.746-1.448 1.56 0 .813.758 1.424 1.586 1.424.62 0 1.173-.475 1.38-1.017l4.345 4c-.069.203-.138.475-.138.678 0 .814.76 1.424 1.587 1.424.828 0 1.448-.746 1.448-1.56 0-.88-.69-1.491-1.517-1.423z"/>
        <path fill="#D1DAE1" d="M152.786 26.105c-.068.27.07.61.345.678l3.518 1.22c.276.068.552-.068.621-.407l1.242-4.814a.678.678 0 0 0-.345-.746l-1.38-.474s-5.311-2.441-10.622-1.967c-2.76.272-4.76 1.492-6.07 3.255-1.38 1.83-2 4.407-2.07 6.848 0 2.373.345 4.068 1.173 5.764 1.172 2.44 3.38 4.271 6.76 4.746 5.311.678 10.691-1.56 10.691-1.56l1.38-.407c.276-.067.414-.406.345-.678l-1.173-4.746c-.069-.339-.345-.474-.62-.407l-3.519 1.085c-.276.068-.413.407-.344.678l.137.475c.07.203-.069.475-.275.542-1.725.746-5.174 1.356-7.795-.067-2.621-1.424-2.414-4.815-2.414-5.221 0-.407.138-3.797 2.483-5.018 2.69-1.356 6.07-.61 7.795.204.206.067.344.339.275.542l-.138.475zm-.275 10.713c.275.067.482.339.551.61a.792.792 0 0 1-.965.95c-.276-.069-.483-.34-.552-.611-.07-.543.414-1.085.966-.95zm-3.587.203c.276.068.483.339.552.61a.792.792 0 0 1-.966.95c-.276-.068-.483-.34-.552-.61-.069-.611.414-1.086.966-.95zm-3.38-.61c.276.068.483.339.552.61a.792.792 0 0 1-.966.95c-.276-.069-.483-.34-.552-.611-.069-.542.414-1.085.966-.95zm-5.656-8.747c.827-3.255 2.897-4.882 2.966-4.95.207-.135.482-.135.62.068.138.204.07.475-.069.678-.069.068-1.862 1.492-2.69 4.407-.758 2.713.138 5.764 2 7.934l.208.203c.138.136.276.271.345.475.068.203.068.406-.138.474a.598.598 0 0 1-.483 0 1.5 1.5 0 0 1-.345-.271c-2.138-2.238-3.242-5.492-2.621-8.476.138-.203.138-.339.207-.542zm5.518-4.34c-.276-.067-.483-.338-.552-.61a.792.792 0 0 1 .966-.949c.276.068.483.34.552.61.069.61-.414 1.085-.966.95zm4.345-1.084a.808.808 0 0 1-.62.61c-.552.136-1.035-.407-.897-1.017a.808.808 0 0 1 .62-.61c.553-.136 1.035.406.897 1.017zm2.622.881c-.276-.068-.483-.339-.552-.61a.792.792 0 0 1 .965-.95c.276.068.483.34.552.61.07.543-.414 1.086-.965.95z"/>
        <g fill-rule="nonzero">
            <g transform="translate(21.382 11.233)">
                <use fill="#000" xlink:href="#a"/>
                <use fill="#D1DAE1" xlink:href="#a"/>
            </g>
            <g transform="translate(21.382 11.233)">
                <use fill="#000" xlink:href="#b"/>
                <use fill="#D1DAE1" xlink:href="#b"/>
            </g>
            <g transform="translate(21.382 11.233)">
                <use fill="#000" xlink:href="#c"/>
                <use fill="#D1DAE1" xlink:href="#c"/>
            </g>
            <g transform="translate(21.382 11.233)">
                <use fill="#000" xlink:href="#d"/>
                <use fill="#D1DAE1" xlink:href="#d"/>
            </g>
        </g>
    </g>
</svg>
